<svg xmlns="http://www.w3.org/2000/svg" xml:space="preserve" id="Layer_1" x="0px" y="0px" style="enable-background:new 0 0 760.6 449.4" version="1.1" viewBox="82.98 68.76 585.82 282.54"><style>.st0{fill:#fbb040}.st3{fill:#ffde17}.st4{fill:#66beb9}.st5{fill:#1a94af}.st6{fill:#010101}</style><path d="M202.1 328.7c-51.2 0-97.4-33-113.4-82.9-9.7-30.3-7-62.6 7.6-90.9s39.3-49.2 69.6-58.9 62.6-7 90.9 7.6 49.2 39.3 58.9 69.6c2.1 6.5 3.6 13.1 4.5 19.8.2 1.2-.7 2.3-1.8 2.4-1.2.2-2.3-.7-2.4-1.8-.9-6.4-2.4-12.9-4.4-19.1-19.2-60.5-84-93.8-144.3-74.5-29.2 9.4-53.1 29.5-67.1 56.8s-16.6 58.4-7.3 87.6c16.9 52.9 69.1 86.1 124.1 79 1.2-.2 2.3.7 2.4 1.9.2 1.2-.7 2.3-1.9 2.4-5.2.6-10.3 1-15.4 1z" class="st0"/><path d="M321.1 239.7c-14.9 0-21.5 5.6-21.5 18.1v.7h9.6v-.7c0-9 3.8-10.6 11.9-10.6s11.7 1.5 11.7 10.6c0 7.2-4.1 8.1-11 9.7l-1.1.3c-14.6 3.3-21.1 5.2-21.1 17.7s6.6 18.1 21.5 18.1c14.6 0 21.3-5.8 21.3-18.4v-27.4c0-12.5-6.6-18.1-21.3-18.1zm11.7 31.3v14.2c0 9.2-3.9 10.9-11.7 10.9-8 0-11.9-1.6-11.9-10.6 0-7.6 3.5-8.4 10.5-10l1.1-.2c6.4-1.6 11.7-3.3 12.2-4.4l-.2.1zm108.3 14.4c0 9.1-3.6 10.6-11.7 10.6-8 0-11.9-1.6-11.9-10.6v-1.1c0-9.1 4.3-9.6 11.9-9.6 15.2 0 21.3-4.9 21.3-17 0-12.5-6.6-18.1-21.3-18.1-14.9 0-21.5 5.6-21.5 18.1v27.7c0 12.5 6.6 18.1 21.5 18.1 14.8 0 21.3-5.6 21.3-18.1v-.7h-9.6v.7zm-11.7-38.3c8.1 0 11.7 1.5 11.7 10.6s-4.2 9.6-11.7 9.6c-4.8 0-10.6 1.4-11.9 2.5v-12.1c.1-9 3.9-10.6 11.9-10.6zm66.3-6.6c-4.5-1-9-1.2-10.8-1.2-14.7 0-21.5 5.8-21.5 18.2v44.7h9.6v-44.7c0-9.2 3.8-10.8 11.9-10.8 2 0 5.8.4 9.3 1.2l.3.1 1.5-7.5h-.3zm115.7 5.9c2.1 0 6 .5 9.4 1.2l1.3-6.9c-4.1-.9-8.6-1.2-10.8-1.2-14.5 0-21.2 5.7-21.2 17.9v44.4h9v-44.4c.2-9.3 4.3-11 12.3-11zm-46.3-5.4h9v60.9h-9zm-295.8-1.5c-14.8 0-21.3 5.6-21.3 18.1v85c.1 2.7 2.2 4.7 4.8 4.7s4.7-2 4.8-4.6V309c0-7.3 4.5-8.4 11.4-10l1.2-.3c13.7-3.1 20.6-4.6 20.6-17.4v-23.8c0-12.4-6.6-18-21.5-18zm-11.7 18.1c0-9 3.6-10.5 11.7-10.5 7.2 0 11.9.7 11.9 10.5v23.8c0 7.2-3.1 8-9.3 9.5l-2 .5c-5.8 1.3-11 2.6-12.3 3v-36.8zm118.5-18.1c-14.8 0-21.3 5.6-21.3 18.1v85c.1 2.7 2.2 4.7 4.8 4.7 2.6 0 4.7-2 4.8-4.6V309c0-7.3 4.5-8.4 11.4-10l1.2-.3c13.7-3.1 20.6-4.6 20.6-17.4v-23.8c0-12.4-6.7-18-21.5-18zm-11.7 18.1c0-9 3.6-10.5 11.7-10.5 7.2 0 11.9.7 11.9 10.5v23.8c0 7.2-3.1 8-9.3 9.5l-2 .5c-5.8 1.3-11 2.6-12.3 3v-36.8zm163.4-14-1.2-.3c-6.8-1.6-11.4-2.7-11.4-10v-33.7c-.1-2.6-2.2-4.6-4.8-4.6-2.6 0-4.7 2-4.8 4.7v85c0 12.5 6.6 18.1 21.3 18.1 14.9 0 21.5-5.6 21.5-18.1V261c0-12.8-6.9-14.4-20.6-17.4zm11 41.1c0 9.8-4.7 10.5-11.9 10.5-8.1 0-11.7-1.5-11.7-10.5V248c1.4.4 6.5 1.7 12.3 3l2 .5c6.2 1.5 9.3 2.2 9.3 9.5v23.7zm108.9 17.8c14.6 0 21.1-5.5 21.1-17.8v-85c-.1-2.5-2.1-4.4-4.5-4.4s-4.4 1.9-4.5 4.4v33.7c0 7.6-4.9 8.7-11.6 10.3l-1.2.3c-13.6 3-20.4 4.6-20.4 17.1v23.8c0 12.1 6.5 17.6 21.1 17.6zM635.6 261c0-7.5 3.4-8.3 9.5-9.7l2-.5c6.9-1.6 12.7-3.1 12.7-3.1v37c0 9.2-3.9 10.8-12 10.8-7.1 0-12.1-.8-12.1-10.8V261h-.1z"/><path d="M220.2 175.5c-.1 1.3-.3 2.6-.4 4 .2-1.4.3-2.7.4-4z" class="st3"/><path d="m187.9 165-22.4-49.5-38 3.4s-20.1 1.8-19 2.2c0 0 14.2 14.5 23.5 11.5 3.8 4.5 16.8 9.3 27.8 15.4 7.8 13.3 28.1 17 28.1 17z" class="st4"/><path d="m188.7 165.6-.9-.2c-.2 0-20.5-3.8-28.5-17.2-3.7-2-7.7-3.9-11.5-5.8-7.2-3.5-13.4-6.5-16.1-9.4-9.2 2.6-22.3-10.3-23.6-11.6l-.3-.1v-.4c.1-.5.1-.8 19.5-2.6l38.4-3.4 23 50.7zm-56.6-33.7.2.3c2.4 2.9 8.7 5.9 16 9.4 3.9 1.9 7.8 3.8 11.7 5.9l.1.1.1.1c6.7 11.5 22.8 15.8 26.9 16.7L165.2 116l-37.7 3.4c-6 .5-15.4 1.5-18.1 1.9 2.8 2.6 14.5 13.3 22.4 10.8l.3-.2zm155.1-56.7c-1.1-.7-31.5 24.7-31.5 24.7l-.2 19.3c0 .1 25.6-18.4 31.7-44z" class="st4"/><path d="m255 120.3.2-20.6.2-.1c30.7-25.6 31.7-25 32.1-24.7l.3.2-.1.4c-6.1 25.5-31.6 44.1-31.9 44.3l-.8.5zm1.2-20.1-.2 18.1c4.3-3.3 24.8-20.1 30.5-42.2-3.8 2.3-20 15.5-30.3 24.1z" class="st4"/><path d="M254.5 102.3 228.9 125l-.1 1.1s-.5 5.6-1.3 14.6l5.1 2.9.2-1 20.3 1.9 4.2-37.6v-1.4l-2.8-3.2z" class="st0"/><path d="m255.9 148.2-28.4-2.3-2.5 29.4c7.7-.1 33.9 7.4 33.9 7.4l-.9.8c3.9 2.2 7.8 5 11.8 8.6.8 1 1.8 1.5 3 1.5h.2c1.5-.1 3.1-1.1 3.3-3.2l2.9-26.5-23.3-15.7z" class="st3"/><path d="m217.2 221.2-22.5-49.9-5 2.2-.9 1.2-8.3 74.5s1 1.2 1.4 1.7c.6.6 1.3.9 2.1.9.7 0 1.4-.3 2-.8l31.2-29.8z" class="st4"/><path d="M184 252.3c-.9 0-1.8-.4-2.5-1.1-.4-.5-1.4-1.6-1.4-1.7l-.1-.2 8.3-74.9 1-1.4 5.5-2.5 22.9 50.7-31.4 30.1c-.6.7-1.4 1-2.3 1zm-3-3.2c.3.3.9 1.1 1.2 1.5.9.9 2.4 1 3.4.1l30.9-29.6-22.1-49.1-4.4 2-.7 1-8.3 74.1z" class="st4"/><path d="M255.5 179.2c-15.2-8.9-28.2-6.9-31.5-6.2h-3.5l-.3 2.6c-1 10-2 19.5-2.9 28.4l5.2 11.5-.3.3.1.1 33-31.3 3.1-3.8-2.9-1.6z" class="st5"/><path d="m225 144.9-7.6 76.2-45.9-103.7z" class="st0"/><path d="m204.6 236.9-20.5 42.4-28.3.8-11.8 4.2-12.7-.4-15.4 5.4-19.3-4.1 87.1-71.1-3.4 42.6z" class="st5"/><path d="M276.6 199.4c-1.8 0-2.7-1.3-3.1-1.7l-.1-.1c-9.3-9.4-19.5-15.5-30.3-18.1-9.6-2.3-16.5-1-18.4-.5l-1.5-6.3c4.5-1.1 27.1-5 51.1 16.8l2.2-22.6-20.9-15.6-30.9-3 .6-6.4 32.7 3.2 25.3 18.9-3.2 31.9c-.2 2.4-1.9 3.5-3.4 3.6.1-.1 0-.1-.1-.1z" class="st6"/><path d="M224.3 148c-.5 0-1.1-.1-1.6-.4l-56.6-32c-1.6-.9-2.1-2.9-1.2-4.4.9-1.6 2.9-2.1 4.4-1.2l56.6 32c1.6.9 2.1 2.9 1.2 4.4-.6 1-1.7 1.6-2.8 1.6z" class="st6"/><path d="m165.19 114.657 5.924-2.676 49.404 109.356-5.923 2.676z" class="st6"/><path d="M190.3 168.5h-.4c-.9-.1-23.2-3.3-33.4-19.3-1-1.5-.5-3.5 1-4.5s3.5-.5 4.5 1c8.5 13.5 28.6 16.3 28.8 16.4 1.8.2 3 1.9 2.8 3.6-.3 1.6-1.7 2.8-3.3 2.8zm62.8-42.4c-.8 0-1.7-.3-2.3-1-1.3-1.3-1.3-3.3 0-4.6.1-.1 8.5-8.5 16.5-18.8 10-12.9 15-23.3 14.1-29.2-.3-1.8 1-3.4 2.7-3.7 1.8-.3 3.4 1 3.7 2.7 1.2 7.9-4 19.4-15.5 34.2-8.2 10.6-16.6 19-17 19.4-.5.6-1.4 1-2.2 1z" class="st6"/><path d="m220.9 222.8-6.4-.7c5.3-47.4 9.8-99.4 9.8-100l.1-1.3 58.1-51.2 4.3 4.9-56.2 49.5c-.7 8.3-4.9 55.5-9.7 98.8z" class="st6"/><path d="m246.367 147.316 5.48-49.297 6.461.718-5.48 49.298zM114.9 293c-1.6 0-3.3-.1-5.1-.4-6.2-1-10.7-3.6-10.9-3.7l-4-2.3 89.1-77.5 4.3 4.9-81.7 71.1c5.1 1.7 13.7 3.1 20.4-3.3 1.8-1.7 5.3-4.8 10.2-9.2 10.4-9.3 26-23.2 42.3-38.6l4.4 4.7c-16.4 15.4-32.1 29.5-42.5 38.8-4.8 4.3-8.3 7.4-10.1 9.1-4.4 4.2-10.1 6.4-16.4 6.4z" class="st6"/><path d="M143.6 288c-6.9 0-12.7-1.9-13.1-2.1l2.1-6.1c.1 0 14.7 4.8 22.4-1.6 2.5-2.3 29.3-27.9 29.6-28.1l4.5 4.7c-1.1 1.1-27.6 26.3-29.7 28.2l-.1.1c-4.6 3.8-10.4 4.9-15.7 4.9z" class="st6"/><path d="M180.8 261.3c-.9 0-1.7-.3-2.4-1-1.2-1.3-1.2-3.3.1-4.6l78.3-74.2c1.3-1.2 3.3-1.2 4.6.1 1.2 1.3 1.2 3.3-.1 4.6L183 260.5c-.6.5-1.4.8-2.2.8z" class="st6"/><path d="m183.3 259-6.4-.7c4.6-41.2 11-91.8 11-92.3l6.4.8c0 .4-6.4 51-11 92.2z" class="st6"/><path d="M171.2 284.3c-1.3 0-2.7-.1-4.2-.2-5.9-.4-10.6-1.5-10.8-1.6l1.5-6.3c4.8 1.1 18.4 3.1 24.5-.7l.3-.2c2.4-1.6 9.6-16.7 16.9-38.5l6.1 2.1c-3.9 11.5-13.5 38.5-20 42.1-3.3 2.2-8.1 3.3-14.3 3.3zm-41.8-147.8c-6.6 0-12.8-2.8-18-8.1-4.4-4.5-6.5-9.2-6.6-9.4l-1.9-4.2 64.9-5.4.5 6.5-55.2 4.6c.8 1.1 1.8 2.4 3 3.6 4.5 4.6 9.7 6.6 15.4 5.9 2.5-.3 7.2-.8 13.7-1.4 7.4-.7 17.5-1.7 28.7-2.9l.7 6.4c-11.2 1.2-21.3 2.2-28.7 2.9-6.5.6-11.1 1.1-13.5 1.4-1 .1-2 .1-3 .1z" class="st6"/><path d="M156.6 149.4c-12.5 0-20.1-9.9-22.9-14.5l5.5-3.4c2.9 4.7 9.4 12.5 19.5 11.2 2.5-.3 7.2-.8 13.7-1.4 2.6-.3 5.6-.5 8.7-.8l.6 6.4c-3.2.3-6.1.6-8.7.8-6.5.6-11.1 1.1-13.5 1.4-.9.3-1.9.3-2.9.3zm-16.9 183.7c-4.3-21 6.6-41 21.4-55.1 4.8-4.7 10-8.8 15.5-12.6-10.2 8.3-19.5 18.1-25.8 29.6-6.3 11.2-8.8 24.5-5.4 36.8.8 3.9-4.8 5.2-5.7 1.3z" class="st6"/><path d="M123.3 345.5c-5-27.6 16.9-50.9 36.2-67.4 6.7-5.6 13.7-10.7 20.9-15.4-7 5.1-13.7 10.6-20 16.5-12.3 11.6-24 25-29.9 41-2.8 7.7-3.7 16.1-1.7 24 1 3.8-4.6 5.1-5.5 1.3z" class="st6"/><path d="M451 321.3c5.9 0 12.2 3.2 13.6 10.5h-6.1c-1.3-3.3-3.9-4.8-7.5-4.8-5.2 0-8.7 3.8-8.7 9.4 0 5 3.4 9.2 8.7 9.2 3.7 0 6.6-1.7 7.6-5.3h6c-1.3 7.8-7.5 11-13.7 11-7.7 0-15-5.2-15-15 .1-9.7 7.4-15.1 15.1-15zm45.8 28.8v.9h-6.7l-6-9.7h-5.3v9.7h-6.3v-29.4h12.6c6.7 0 10.4 4.9 10.4 10.1 0 3.7-1.9 7-5.3 8.7l6.6 9.7zm-11.8-14c2.6 0 4.4-2.1 4.3-4.6 0-2.5-1.6-4.5-4.3-4.5h-6.3v9h6.3v.1zm37.3-9h-11.7v6h10.9v5.5h-10.9v6.7h12v5.7h-18.4v-29.4h18v5.5h.1zm14.8 19-2.3 4.9h-6.6v-.8l13.5-28.8h2.9l13.4 28.8v.8h-6.5l-2.3-4.9h-12.1zm2.1-5.2h8.1l-4.1-9.7-4 9.7zm19.8-13.8v-5.5h21.8v5.5H573V351h-6.1v-23.9H559zm42.2 18.9v5h-14.6v-5h4.2v-19.5H587v-4.9h13.9v4.9h-3.8V346h4.1zm19.6-5.5 3.1-9.4 3.9-9.5h6.7v.9L622 351.3h-2.6l-12.6-28.7v-.9h6.7l3.9 9.5 3.3 9.5h.1v-.2zm38.2-13.4h-11.7v6h10.9v5.5h-10.9v6.7h12v5.7H641v-29.4h18v5.5z" class="st5"/><path d="M572.7 234h-6.2c-.9 0-1.7-.8-1.7-1.7v-6.2c0-.9.8-1.7 1.7-1.7h6.2c.9 0 1.7.8 1.7 1.7v6.2c0 .9-.7 1.7-1.7 1.7z"/></svg>