<svg xmlns="http://www.w3.org/2000/svg" xml:space="preserve" id="Layer_1" x="0px" y="0px" style="enable-background:new 0 0 604.8 536.6" version="1.1" viewBox="0 0 604.8 536.6"><style>.st2{fill:#fbb040}.st5{fill:#ffde17}.st6{fill:#66beb9;stroke:#66beb9;stroke-width:.7972;stroke-miterlimit:10}.st7{fill:#1a94af}.st8,.st9{fill:none;stroke:#010101;stroke-width:5.1659;stroke-miterlimit:10}.st9{stroke-linecap:round}.st10{fill:#010101}.st13{fill:none}.st14{font-family:&quot;CasinoHand&quot;}.st15{font-size:56.3219px}</style><path d="M162.1 269.5c-43.8 5.7-86.8-20.5-100.8-64.1-15.7-49.1 11.4-101.6 60.4-117.3S223.3 99.5 239 148.5c1.6 5.1 2.8 10.3 3.6 15.5" style="fill:none;stroke:#ffde17;stroke-width:3.4439;stroke-linecap:round;stroke-miterlimit:10"/><path d="M216.6 68.1c-.9-.6-25 20.4-25 20.4l-.2 16.5s20-15.1 25.2-36.9z" style="fill:#66beb9;stroke:#66beb9;stroke-width:.8529;stroke-miterlimit:10"/><path d="m192.5 89-21.9 19.3-.1 1s-.4 4.8-1.1 12.4l4.4 2.4.2-.9 15.2 2.4 2.4-32.2 1.5-2-.6-2.4z" class="st2"/><path d="M244.9 201.1c-11.8 0-17.1 4.4-17.1 14.4v.6h7.7v-.6c0-7.2 3-8.5 9.5-8.5s9.3 1.2 9.3 8.5c0 5.7-3.3 6.5-8.8 7.7l-.9.2c-11.7 2.6-16.8 4.2-16.8 14.1 0 10 5.3 14.4 17.1 14.4 11.6 0 17-4.7 17-14.6v-21.8c0-10-5.2-14.4-17-14.4zm9.4 25v11.3c0 7.4-3.1 8.7-9.3 8.7-6.4 0-9.5-1.3-9.5-8.5 0-6 2.8-6.7 8.4-8l.9-.2c5.1-1.3 9.3-2.6 9.7-3.5l-.2.2zm86.4 11.5c0 7.3-2.9 8.5-9.3 8.5s-9.5-1.3-9.5-8.5v-.9c0-7.3 3.4-7.6 9.5-7.6 12.1 0 17-3.9 17-13.6 0-10-5.2-14.4-17-14.4s-17.1 4.4-17.1 14.4v22.1c0 10 5.3 14.4 17.1 14.4s17-4.4 17-14.4v-.6h-7.7v.6zm-9.4-30.6c6.5 0 9.3 1.2 9.3 8.5s-3.4 7.6-9.3 7.6c-3.8 0-8.4 1.1-9.5 2v-9.6c.1-7.2 3.1-8.5 9.5-8.5zm52.9-5.3c-3.6-.8-7.2-1-8.6-1-11.7 0-17.1 4.6-17.1 14.5v35.6h7.7v-35.6c0-7.3 3-8.6 9.5-8.6 1.6 0 4.6.3 7.5 1l.2.1 1.2-6h-.4zm92.2 4.8c1.6 0 4.8.4 7.5 1l1.1-5.5c-3.3-.7-6.9-1-8.6-1-11.5 0-16.9 4.5-16.9 14.3v35.4h7.2v-35.4c0-7.5 3.3-8.8 9.7-8.8zm-37-4.3h7.2v48.5h-7.2zM203.7 201c-11.8 0-17 4.5-17 14.4v67.8c.1 2.1 1.7 3.8 3.8 3.8 2.1 0 3.8-1.6 3.8-3.7v-26.8c0-5.8 3.6-6.7 9.1-8l1-.2c10.9-2.4 16.4-3.7 16.4-13.9v-18.9c0-10.1-5.3-14.5-17.1-14.5zm-9.4 14.4c0-7.2 2.9-8.4 9.3-8.4 5.7 0 9.5.6 9.5 8.4v18.9c0 5.8-2.5 6.4-7.4 7.5l-1.6.4c-4.6 1.1-8.7 2.1-9.8 2.4v-29.2zm94.5-14.4c-11.8 0-17 4.5-17 14.4v67.8c.1 2.1 1.7 3.8 3.8 3.8 2.1 0 3.8-1.6 3.8-3.7v-26.8c0-5.8 3.6-6.7 9.1-8l1-.2c10.9-2.4 16.4-3.7 16.4-13.9v-18.9c0-10.1-5.3-14.5-17.1-14.5zm-9.4 14.4c0-7.2 2.9-8.4 9.3-8.4 5.7 0 9.5.6 9.5 8.4v18.9c0 5.8-2.5 6.4-7.4 7.5l-1.6.4c-4.6 1.1-8.7 2.1-9.8 2.4v-29.2zm130.3-11.2-1-.2c-5.4-1.3-9-2.1-9-8v-26.8c-.1-2.1-1.8-3.7-3.8-3.7-2.1 0-3.7 1.6-3.8 3.8v67.8c0 10 5.2 14.4 17 14.4s17.1-4.5 17.1-14.4V218c-.1-10.2-5.6-11.4-16.5-13.8zm8.8 32.8c0 7.8-3.7 8.4-9.5 8.4-6.5 0-9.3-1.2-9.3-8.4v-29.2c1.1.3 5.2 1.3 9.8 2.4l1.6.4c4.9 1.2 7.4 1.8 7.4 7.5V237zm86.8 14.2c11.6 0 16.8-4.4 16.8-14.2v-67.8c-.1-2-1.7-3.5-3.6-3.5-1.9 0-3.5 1.5-3.6 3.5V196c0 6-3.9 6.9-9.2 8.2l-1 .2c-10.8 2.4-16.3 3.6-16.3 13.6v19c.1 9.8 5.3 14.2 16.9 14.2zm-9.6-33.2c0-5.9 2.7-6.6 7.6-7.8l1.6-.4c5.5-1.3 10.1-2.5 10.1-2.5V237c0 7.3-3.1 8.6-9.6 8.6-5.7 0-9.7-.6-9.7-8.6v-19z"/><path d="M164.5 149.9c-.1 1.1-.2 2.1-.3 3.2.1-1.1.2-2.1.3-3.2z" class="st5"/><path d="M138.7 141.5 120.9 102l-30.3 2.7s-16 1.5-15.2 1.7c0 0 11.3 11.6 18.7 9.1 3 3.6 13.4 7.4 22.2 12.2 6.2 10.9 22.4 13.8 22.4 13.8z" class="st6"/><path d="m193 128.1-22.6-1.8-2 23.4c6.1-.1 27 5.9 27 5.9l-.7.6c3.1 1.8 6.2 4 9.4 6.9.7.8 1.5 1.2 2.4 1.2h.2c1.2-.1 2.4-.9 2.6-2.5l2.3-21.1-18.6-12.6z" class="st5"/><path d="m162.1 186.3-18-39.8-4 1.8-.7.9-6.6 59.4s.8 1 1.1 1.3c.5.5 1.1.7 1.7.7.6 0 1.1-.2 1.6-.6l24.9-23.7z" class="st6"/><path d="M192.6 152.9c-12.2-7.1-22.5-5.5-25.1-5h-2.8l-.2 2.1c-.8 8-1.6 15.6-2.3 22.7l4.1 9.2-.2.2.1.1 26.3-24.9 2.5-3-2.4-1.4z" class="st7"/><path d="m168.3 125.5-6 60.8-36.6-82.7z" class="st2"/><path d="m152.1 198.8-16.4 33.9-22.6.6-9.4 3.4-10-.4-12.4 4.3-15.3-3.2 69.4-56.7-2.7 33.9z" class="st7"/><path d="M167.5 150.1c5.3-1.3 23.2-2.8 41.3 15.6.3.3.5.7.7.7.2 0 .3-.6.3-.6l2.4-24-18.4-13.8-25.3-2.5" class="st8"/><path d="m167.8 125.4-45.1-25.5" class="st9"/><path d="m123 100.3 39.4 87.2" class="st8"/><path d="M140.6 141.7s-17.2-2.3-24.8-14.2m100.1-60.1c2 13.5-25.1 40.5-25.1 40.5" class="st9"/><path d="M162.5 187.3c4.2-38.2 7.8-79.8 7.8-79.8l45.6-40.2" class="st8"/><path d="M187.9 127.7c2.2-19.5 3.9-35.3 4.4-39.3m-55 90.2L69.1 238s13.3 7.5 22.8-1.5c4.4-4.2 22.7-20.1 41.9-38.1m-40 37.1s13 4.4 20.4-1.8c1.6-1.6 23.6-22.5 23.6-22.5" class="st8"/><path d="m133.1 215.8 62.4-59.2" class="st9"/><path d="M132.5 216.2c3.7-33.2 8.8-73.6 8.8-73.6" class="st8"/><path d="M114.1 232.8s14.7 3.4 21.5-.9c4.7-2.3 14.8-32.2 14.8-32.2m-27.3-99.9-48.1 4s6.3 13.9 19.3 12.3c4.2-.5 17.3-1.6 33.7-3.4m-30.2 3.6c2.4 3.8 8.3 11.4 18.1 10.2 2.7-.3 9.1-.9 17.8-1.8" class="st8"/><path d="M100.3 275.5c-3.4-16.7 5.3-32.7 17.1-43.9 3.8-3.7 8-7.1 12.3-10.1-4.1 3.3-8 6.9-11.5 10.9-6.8 7.7-12.6 16.9-14.2 27.2-.8 5-.5 10.1.8 14.9.7 3.1-3.8 4.1-4.5 1z" class="st10"/><path d="M87.3 285.4c-4-22 13.5-40.6 28.9-53.7 5.3-4.4 10.9-8.5 16.7-12.3-5.6 4.1-10.9 8.5-15.9 13.2-9.8 9.3-19.2 20-23.8 32.7-2.3 6.2-3 13-1.3 19.2.6 2.9-4 4-4.6.9z" class="st10"/><path d="M348.5 266.2c4.7 0 9.7 2.5 10.8 8.3h-4.9c-1-2.6-3.1-3.8-6-3.8-4.2 0-6.9 3-6.9 7.5 0 4 2.7 7.4 6.9 7.4 2.9 0 5.3-1.4 6.1-4.2h4.8c-1 6.2-6 8.8-10.9 8.8-6.2 0-12-4.2-12-11.9.1-8 5.9-12.2 12.1-12.1zm36.5 22.9v.7h-5.4l-4.8-7.7h-4.2v7.7h-5v-23.4h10c5.4 0 8.3 3.9 8.3 8 0 3-1.5 5.6-4.2 6.9l5.3 7.8zm-9.4-11.2c2.1 0 3.5-1.6 3.4-3.6 0-2-1.3-3.6-3.4-3.6h-5v7.2h5zm29.7-7.1H396v4.8h8.7v4.4H396v5.4h9.6v4.6H391v-23.4h14.4v4.2zm11.9 15.2-1.8 3.9h-5.2v-.7l10.8-23h2.3l10.7 23v.7h-5.2L427 286h-9.8zm1.6-4.3h6.5l-3.2-7.7-3.3 7.7zm15.8-11v-4.4H452v4.4h-6.2v19.1h-4.9v-19.1h-6.3zm33.7 15.2v4h-11.7v-4h3.3v-15.6h-3v-3.9H468v3.9h-3v15.6h3.3zm15.5-4.4 2.5-7.5 3.1-7.6h5.3v.7l-10 22.9h-2.1l-10.1-22.9v-.7h5.3l3.1 7.5 2.6 7.5h.3zm30.5-10.7H505v4.8h8.7v4.4H505v5.4h9.6v4.6H500v-23.4h14.4v4.2z" class="st7"/><path d="M445.5 196.5h-4.9c-.8 0-1.4-.6-1.4-1.4v-4.9c0-.8.6-1.4 1.4-1.4h4.9c.8 0 1.4.6 1.4 1.4v4.9c0 .8-.6 1.4-1.4 1.4z"/><path d="M119 345.3h367.6v34.5H119z" style="opacity:.9;fill:#ffde17" transform="rotate(-180 302.778 362.567)"/><path d="M479.522 426.397h-347.4v-36.9h347.4z" class="st5"/><path d="M131.2 341.5h381v43.6h-381z" class="st13"/><text class="st14 st15" transform="matrix(.9619 0 0 1 131.236 372.393)">freelance graphic design</text><path d="M157.3 387.6h316.4v47.8H157.3z" class="st13"/><text class="st14 st15" transform="matrix(.9619 0 0 1 157.282 418.462)">and creative services</text></svg>