<svg xmlns="http://www.w3.org/2000/svg" xmlns:xlink="http://www.w3.org/1999/xlink" version="1.1" id="Layer_1" x="0px" y="0px" style="enable-background:new 0 0 760.6 449.4;" xml:space="preserve" viewBox="82.98 68.76 585.82 282.54">
<style type="text/css">
	.st0{fill:#FBB040;}
	.st1{fill:none;stroke:#000000;stroke-width:5.76;stroke-miterlimit:10;}
	.st2{fill:none;stroke:#000000;stroke-width:3.888;stroke-miterlimit:10;}
	.st3{fill:#FFDE17;}
	.st4{fill:#66BEB9;}
	.st5{fill:#1A94AF;}
	.st6{fill:#010101;}
</style>
<path class="st0" d="M202.1,328.7c-51.2,0-97.4-33-113.4-82.9c-9.7-30.3-7-62.6,7.6-90.9s39.3-49.2,69.6-58.9s62.6-7,90.9,7.6  s49.2,39.3,58.9,69.6c2.1,6.5,3.6,13.1,4.5,19.8c0.2,1.2-0.7,2.3-1.8,2.4c-1.2,0.2-2.3-0.7-2.4-1.8c-0.9-6.4-2.4-12.9-4.4-19.1  c-19.2-60.5-84-93.8-144.3-74.5c-29.2,9.4-53.1,29.5-67.1,56.8s-16.6,58.4-7.3,87.6c16.9,52.9,69.1,86.1,124.1,79  c1.2-0.2,2.3,0.7,2.4,1.9c0.2,1.2-0.7,2.3-1.9,2.4C212.3,328.3,207.2,328.7,202.1,328.7z"/>
<path d="M321.1,239.7c-14.9,0-21.5,5.6-21.5,18.1v0.7h9.6v-0.7c0-9,3.8-10.6,11.9-10.6s11.7,1.5,11.7,10.6c0,7.2-4.1,8.1-11,9.7  l-1.1,0.3c-14.6,3.3-21.1,5.2-21.1,17.7s6.6,18.1,21.5,18.1c14.6,0,21.3-5.8,21.3-18.4v-27.4C342.4,245.3,335.8,239.7,321.1,239.7z   M332.8,271v14.2c0,9.2-3.9,10.9-11.7,10.9c-8,0-11.9-1.6-11.9-10.6c0-7.6,3.5-8.4,10.5-10l1.1-0.2c6.4-1.6,11.7-3.3,12.2-4.4  L332.8,271z"/>
<path d="M441.1,285.4c0,9.1-3.6,10.6-11.7,10.6c-8,0-11.9-1.6-11.9-10.6v-1.1c0-9.1,4.3-9.6,11.9-9.6c15.2,0,21.3-4.9,21.3-17  c0-12.5-6.6-18.1-21.3-18.1c-14.9,0-21.5,5.6-21.5,18.1v27.7c0,12.5,6.6,18.1,21.5,18.1c14.8,0,21.3-5.6,21.3-18.1v-0.7h-9.6  L441.1,285.4L441.1,285.4z M429.4,247.1c8.1,0,11.7,1.5,11.7,10.6s-4.2,9.6-11.7,9.6c-4.8,0-10.6,1.4-11.9,2.5v-12.1  C417.6,248.7,421.4,247.1,429.4,247.1z"/>
<path d="M495.7,240.5c-4.5-1-9-1.2-10.8-1.2c-14.7,0-21.5,5.8-21.5,18.2v44.7h9.6v-44.7c0-9.2,3.8-10.8,11.9-10.8  c2,0,5.8,0.4,9.3,1.2l0.3,0.1l1.5-7.5H495.7z"/>
<path d="M611.4,246.4c2.1,0,6,0.5,9.4,1.2l1.3-6.9c-4.1-0.9-8.6-1.2-10.8-1.2c-14.5,0-21.2,5.7-21.2,17.9v44.4h9v-44.4  C599.3,248.1,603.4,246.4,611.4,246.4z"/>
<rect x="565.1" y="241" width="9" height="60.9"/>
<path d="M269.3,239.5c-14.8,0-21.3,5.6-21.3,18.1v85c0.1,2.7,2.2,4.7,4.8,4.7s4.7-2,4.8-4.6V342v-33c0-7.3,4.5-8.4,11.4-10l1.2-0.3  c13.7-3.1,20.6-4.6,20.6-17.4v-23.8C290.8,245.1,284.2,239.5,269.3,239.5z M257.6,257.6c0-9,3.6-10.5,11.7-10.5  c7.2,0,11.9,0.7,11.9,10.5v23.8c0,7.2-3.1,8-9.3,9.5l-2,0.5c-5.8,1.3-11,2.6-12.3,3L257.6,257.6L257.6,257.6z"/>
<path d="M376.1,239.5c-14.8,0-21.3,5.6-21.3,18.1v85c0.1,2.7,2.2,4.7,4.8,4.7c2.6,0,4.7-2,4.8-4.6V342v-33c0-7.3,4.5-8.4,11.4-10  l1.2-0.3c13.7-3.1,20.6-4.6,20.6-17.4v-23.8C397.6,245.1,390.9,239.5,376.1,239.5z M364.4,257.6c0-9,3.6-10.5,11.7-10.5  c7.2,0,11.9,0.7,11.9,10.5v23.8c0,7.2-3.1,8-9.3,9.5l-2,0.5c-5.8,1.3-11,2.6-12.3,3L364.4,257.6L364.4,257.6z"/>
<path d="M527.8,243.6l-1.2-0.3c-6.8-1.6-11.4-2.7-11.4-10v-33v-0.7c-0.1-2.6-2.2-4.6-4.8-4.6c-2.6,0-4.7,2-4.8,4.7v85  c0,12.5,6.6,18.1,21.3,18.1c14.9,0,21.5-5.6,21.5-18.1V261C548.4,248.2,541.5,246.6,527.8,243.6z M538.8,284.7  c0,9.8-4.7,10.5-11.9,10.5c-8.1,0-11.7-1.5-11.7-10.5V248c1.4,0.4,6.5,1.7,12.3,3l2,0.5c6.2,1.5,9.3,2.2,9.3,9.5L538.8,284.7  L538.8,284.7z"/>
<path d="M647.7,302.5c14.6,0,21.1-5.5,21.1-17.8v-79.6l0,0v-5.4c-0.1-2.5-2.1-4.4-4.5-4.4s-4.4,1.9-4.5,4.4v0.7v4.8l0,0v28.2  c0,7.6-4.9,8.7-11.6,10.3L647,244c-13.6,3-20.4,4.6-20.4,17.1v23.8C626.6,297,633.1,302.5,647.7,302.5z M635.6,261  c0-7.5,3.4-8.3,9.5-9.7l2-0.5c6.9-1.6,12.7-3.1,12.7-3.1v37c0,9.2-3.9,10.8-12,10.8c-7.1,0-12.1-0.8-12.1-10.8V261H635.6z"/>
<path class="st1" d="M219,214.6"/>
<path class="st2" d="M211,215.3"/>
<path class="st2" d="M207.8,223.6"/>
<path class="st3" d="M220.2,175.5c-0.1,1.3-0.3,2.6-0.4,4l0,0C220,178.1,220.1,176.8,220.2,175.5z"/>
<g>
	<path class="st4" d="M187.9,165l-22.4-49.5l-38,3.4l0,0c0,0-20.1,1.8-19,2.2c0,0,14.2,14.5,23.5,11.5c3.8,4.5,16.8,9.3,27.8,15.4   C167.6,161.3,187.9,165,187.9,165z"/>
	<path class="st4" d="M188.7,165.6l-0.9-0.2c-0.2,0-20.5-3.8-28.5-17.2c-3.7-2-7.7-3.9-11.5-5.8c-7.2-3.5-13.4-6.5-16.1-9.4   c-9.2,2.6-22.3-10.3-23.6-11.6l-0.3-0.1v-0.4c0.1-0.5,0.1-0.8,19.5-2.6l38.4-3.4L188.7,165.6z M132.1,131.9l0.2,0.3   c2.4,2.9,8.7,5.9,16,9.4c3.9,1.9,7.8,3.8,11.7,5.9l0.1,0.1l0.1,0.1c6.7,11.5,22.8,15.8,26.9,16.7L165.2,116l-37.7,3.4   c-6,0.5-15.4,1.5-18.1,1.9c2.8,2.6,14.5,13.3,22.4,10.8L132.1,131.9z"/>
</g>
<g>
	<path class="st4" d="M287.2,75.2c-1.1-0.7-31.5,24.7-31.5,24.7l-0.2,19.3C255.5,119.3,281.1,100.8,287.2,75.2z"/>
	<path class="st4" d="M255,120.3l0.2-20.6l0.2-0.1c30.7-25.6,31.7-25,32.1-24.7l0.3,0.2l-0.1,0.4c-6.1,25.5-31.6,44.1-31.9,44.3   L255,120.3z M256.2,100.2l-0.2,18.1c4.3-3.3,24.8-20.1,30.5-42.2C282.7,78.4,266.5,91.6,256.2,100.2z"/>
</g>
<path class="st0" d="M254.5,102.3L228.9,125l-0.1,1.1c0,0-0.5,5.6-1.3,14.6l5.1,2.9l0.2-1l20.3,1.9l4.2-37.6v-1.4L254.5,102.3z"/>
<path class="st3" d="M255.9,148.2l-28.4-2.3l-2.5,29.4c7.7-0.1,33.9,7.4,33.9,7.4l-0.9,0.8c3.9,2.2,7.8,5,11.8,8.6  c0.8,1,1.8,1.5,3,1.5c0.1,0,0.2,0,0.2,0c1.5-0.1,3.1-1.1,3.3-3.2l2.9-26.5L255.9,148.2z"/>
<g>
	<path class="st4" d="M217.2,221.2l-22.5-49.9l-5,2.2l-0.9,1.2l-8.3,74.5c0,0,1,1.2,1.4,1.7c0.6,0.6,1.3,0.9,2.1,0.9   c0.7,0,1.4-0.3,2-0.8L217.2,221.2z"/>
	<path class="st4" d="M184,252.3c-0.9,0-1.8-0.4-2.5-1.1c-0.4-0.5-1.4-1.6-1.4-1.7l-0.1-0.2l8.3-74.9l1-1.4l5.5-2.5l22.9,50.7   l-31.4,30.1C185.7,252,184.9,252.3,184,252.3z M181,249.1c0.3,0.3,0.9,1.1,1.2,1.5c0.9,0.9,2.4,1,3.4,0.1l30.9-29.6L194.4,172   l-4.4,2l-0.7,1L181,249.1z"/>
</g>
<path class="st5" d="M255.5,179.2c-15.2-8.9-28.2-6.9-31.5-6.2h-3.5l-0.3,2.6c-1,10-2,19.5-2.9,28.4l5.2,11.5l-0.3,0.3l0.1,0.1  l33-31.3l3.1-3.8L255.5,179.2z"/>
<polygon class="st0" points="225,144.9 217.4,221.1 171.5,117.4 "/>
<polygon class="st5" points="204.6,236.9 184.1,279.3 155.8,280.1 144,284.3 131.3,283.9 115.9,289.3 96.6,285.2 183.7,214.1   180.3,256.7 "/>
<g>
	<path class="st6" d="M276.6,199.4c-1.8,0-2.7-1.3-3.1-1.7l-0.1-0.1c-9.3-9.4-19.5-15.5-30.3-18.1c-9.6-2.3-16.5-1-18.4-0.5   l-1.5-6.3c4.5-1.1,27.1-5,51.1,16.8l2.2-22.6l-20.9-15.6l-30.9-3l0.6-6.4l32.7,3.2l25.3,18.9l-3.2,31.9c-0.2,2.4-1.9,3.5-3.4,3.6   C276.8,199.4,276.7,199.4,276.6,199.4z"/>
	<path class="st6" d="M224.3,148c-0.5,0-1.1-0.1-1.6-0.4l-56.6-32c-1.6-0.9-2.1-2.9-1.2-4.4c0.9-1.6,2.9-2.1,4.4-1.2l56.6,32   c1.6,0.9,2.1,2.9,1.2,4.4C226.5,147.4,225.4,148,224.3,148z"/>
	
		<rect x="189.6" y="108" transform="matrix(0.9113 -0.4117 0.4117 0.9113 -52.0555 94.2947)" class="st6" width="6.5" height="120"/>
	<path class="st6" d="M190.3,168.5c-0.1,0-0.3,0-0.4,0c-0.9-0.1-23.2-3.3-33.4-19.3c-1-1.5-0.5-3.5,1-4.5s3.5-0.5,4.5,1   c8.5,13.5,28.6,16.3,28.8,16.4c1.8,0.2,3,1.9,2.8,3.6C193.3,167.3,191.9,168.5,190.3,168.5z"/>
	<path class="st6" d="M253.1,126.1c-0.8,0-1.7-0.3-2.3-1c-1.3-1.3-1.3-3.3,0-4.6c0.1-0.1,8.5-8.5,16.5-18.8   c10-12.9,15-23.3,14.1-29.2c-0.3-1.8,1-3.4,2.7-3.7c1.8-0.3,3.4,1,3.7,2.7c1.2,7.9-4,19.4-15.5,34.2c-8.2,10.6-16.6,19-17,19.4   C254.8,125.7,253.9,126.1,253.1,126.1z"/>
	<path class="st6" d="M220.9,222.8l-6.4-0.7c5.3-47.4,9.8-99.4,9.8-100l0.1-1.3l58.1-51.2l4.3,4.9L230.6,124   C229.9,132.3,225.7,179.5,220.9,222.8z"/>
	
		<rect x="227.5" y="119.8" transform="matrix(0.1105 -0.9939 0.9939 0.1105 102.1591 360.1906)" class="st6" width="49.6" height="6.5"/>
	<path class="st6" d="M114.9,293c-1.6,0-3.3-0.1-5.1-0.4c-6.2-1-10.7-3.6-10.9-3.7l-4-2.3l89.1-77.5l4.3,4.9l-81.7,71.1   c5.1,1.7,13.7,3.1,20.4-3.3c1.8-1.7,5.3-4.8,10.2-9.2c10.4-9.3,26-23.2,42.3-38.6l4.4,4.7c-16.4,15.4-32.1,29.5-42.5,38.8   c-4.8,4.3-8.3,7.4-10.1,9.1C126.9,290.8,121.2,293,114.9,293z"/>
	<path class="st6" d="M143.6,288c-6.9,0-12.7-1.9-13.1-2.1l2.1-6.1c0.1,0,14.7,4.8,22.4-1.6c2.5-2.3,29.3-27.9,29.6-28.1l4.5,4.7   c-1.1,1.1-27.6,26.3-29.7,28.2l-0.1,0.1C154.7,286.9,148.9,288,143.6,288z"/>
	<path class="st6" d="M180.8,261.3c-0.9,0-1.7-0.3-2.4-1c-1.2-1.3-1.2-3.3,0.1-4.6l78.3-74.2c1.3-1.2,3.3-1.2,4.6,0.1   c1.2,1.3,1.2,3.3-0.1,4.6L183,260.5C182.4,261,181.6,261.3,180.8,261.3z"/>
	<path class="st6" d="M183.3,259l-6.4-0.7c4.6-41.2,11-91.8,11-92.3l6.4,0.8C194.3,167.2,187.9,217.8,183.3,259z"/>
	<path class="st6" d="M171.2,284.3c-1.3,0-2.7-0.1-4.2-0.2c-5.9-0.4-10.6-1.5-10.8-1.6l1.5-6.3c4.8,1.1,18.4,3.1,24.5-0.7l0.3-0.2   c2.4-1.6,9.6-16.7,16.9-38.5l6.1,2.1c-3.9,11.5-13.5,38.5-20,42.1C182.2,283.2,177.4,284.3,171.2,284.3z"/>
	<path class="st6" d="M129.4,136.5c-6.6,0-12.8-2.8-18-8.1c-4.4-4.5-6.5-9.2-6.6-9.4l-1.9-4.2l64.9-5.4l0.5,6.5l-55.2,4.6   c0.8,1.1,1.8,2.4,3,3.6c4.5,4.6,9.7,6.6,15.4,5.9c2.5-0.3,7.2-0.8,13.7-1.4c7.4-0.7,17.5-1.7,28.7-2.9l0.7,6.4   c-11.2,1.2-21.3,2.2-28.7,2.9c-6.5,0.6-11.1,1.1-13.5,1.4C131.4,136.5,130.4,136.5,129.4,136.5z"/>
	<path class="st6" d="M156.6,149.4c-12.5,0-20.1-9.9-22.9-14.5l5.5-3.4c2.9,4.7,9.4,12.5,19.5,11.2c2.5-0.3,7.2-0.8,13.7-1.4   c2.6-0.3,5.6-0.5,8.7-0.8l0.6,6.4c-3.2,0.3-6.1,0.6-8.7,0.8c-6.5,0.6-11.1,1.1-13.5,1.4C158.6,149.4,157.6,149.4,156.6,149.4z"/>
</g>
<g>
	<path class="st6" d="M139.7,333.1c-4.3-21,6.6-41,21.4-55.1c4.8-4.7,10-8.8,15.5-12.6c-10.2,8.3-19.5,18.1-25.8,29.6   c-6.3,11.2-8.8,24.5-5.4,36.8C146.2,335.7,140.6,337,139.7,333.1L139.7,333.1z"/>
	<g>
		<path class="st6" d="M123.3,345.5c-5-27.6,16.9-50.9,36.2-67.4c6.7-5.6,13.7-10.7,20.9-15.4c-7,5.1-13.7,10.6-20,16.5    c-12.3,11.6-24,25-29.9,41c-2.8,7.7-3.7,16.1-1.7,24C129.8,348,124.2,349.3,123.3,345.5L123.3,345.5z"/>
	</g>
</g>
<g>
	<path class="st5" d="M451,321.3c5.9,0,12.2,3.2,13.6,10.5h-6.1c-1.3-3.3-3.9-4.8-7.5-4.8c-5.2,0-8.7,3.8-8.7,9.4   c0,5,3.4,9.2,8.7,9.2c3.7,0,6.6-1.7,7.6-5.3h6c-1.3,7.8-7.5,11-13.7,11c-7.7,0-15-5.2-15-15C436,326.6,443.3,321.2,451,321.3z"/>
	<path class="st5" d="M496.8,350.1v0.9h-6.7l-6-9.7h-5.3v9.7h-6.3v-29.4c4.2,0,8.4,0,12.6,0c6.7,0,10.4,4.9,10.4,10.1   c0,3.7-1.9,7-5.3,8.7L496.8,350.1z M485,336.1c2.6,0,4.4-2.1,4.3-4.6c0-2.5-1.6-4.5-4.3-4.5h-6.3v9h6.3V336.1z"/>
	<path class="st5" d="M522.3,327.1h-11.7v6h10.9v5.5h-10.9v6.7h12v5.7h-18.4v-29.4h18v5.5H522.3z"/>
	<path class="st5" d="M537.1,346.1l-2.3,4.9h-6.6v-0.8l13.5-28.8h2.9l13.4,28.8v0.8h-6.5l-2.3-4.9H537.1z M539.2,340.9h8.1l-4.1-9.7   L539.2,340.9z"/>
	<path class="st5" d="M559,327.1v-5.5h21.8v5.5H573V351h-6.1v-23.9H559z"/>
	<path class="st5" d="M601.2,346v5h-14.6v-5h4.2v-19.5H587v-4.9h13.9v4.9h-3.8V346H601.2z"/>
	<path class="st5" d="M620.8,340.5l3.1-9.4l3.9-9.5h6.7v0.9L622,351.3h-2.6l-12.6-28.7v-0.9h6.7l3.9,9.5l3.3,9.5h0.1V340.5z"/>
	<path class="st5" d="M659,327.1h-11.7v6h10.9v5.5h-10.9v6.7h12v5.7H641v-29.4h18V327.1z"/>
</g>
<path d="M572.7,234h-6.2c-0.9,0-1.7-0.8-1.7-1.7v-6.2c0-0.9,0.8-1.7,1.7-1.7h6.2c0.9,0,1.7,0.8,1.7,1.7v6.2  C574.4,233.2,573.7,234,572.7,234z"/>
</svg>