<svg xmlns="http://www.w3.org/2000/svg" xml:space="preserve" id="Layer_1" x="0px" y="0px" style="enable-background:new 0 0 621 638" version="1.1" viewBox="0 0 621 638"><style>.st2{fill:#ffdd15}.st3{fill:#66beb9}.st4{fill:#faaf40}.st5{fill:#1b93ae}.st6,.st7{fill:none;stroke:#000;stroke-width:10.6094;stroke-miterlimit:10}.st7{stroke-linecap:round}</style><path d="M360.2 256.7c-.2 2.2-.4 4.3-.6 6.5.2-2.1.4-4.3.6-6.5z" class="st2"/><path d="m307.2 239.5-36.6-81.1-62.3 5.5s-32.8 3-31.1 3.6c0 0 23.3 23.7 38.4 18.8 6.2 7.4 27.5 15.3 45.5 25.2 12.9 22 46.1 28 46.1 28zM468.9 90.3c-1.8-1.1-51.6 40.4-51.6 40.4l-.3 31.7s41.9-30.3 51.9-72.1z" class="st3"/><path d="m409.3 143-42 37-.2 1.9s-.8 9.1-2.1 23.8l8.4 4.7.4-1.7 33.2 3.1 6.8-61.5V148l-4.5-5z" class="st4"/><path d="m418.7 212-46.5-3.7-4.1 48.1c12.6-.2 55.6 12.1 55.6 12.1l-1.5 1.3c6.3 3.6 12.8 8.2 19.3 14.2 1.4 1.6 3 2.5 4.9 2.5h.4c2.4-.1 5-1.8 5.4-5.2l4.8-43.4-38.3-25.9z" class="st2"/><path d="m355.3 331.6-36.9-81.7-8.1 3.7-1.4 1.9-13.6 122s1.6 2 2.3 2.7c.9 1 2.2 1.5 3.4 1.5 1.2 0 2.3-.4 3.2-1.3l51.1-48.8z" class="st3"/><path d="M417.9 262.9c-25-14.5-46.2-11.3-51.6-10.2l-5.7-.1-.4 4.3c-1.6 16.4-3.2 32-4.8 46.5l8.5 18.9-.5.5.2.2 54-51.2 5.1-6.2-4.8-2.7z" class="st5"/><path d="m368 206.6-12.4 124.9-75.2-169.9z" class="st4"/><path d="m334.7 357.2-33.6 69.5-46.4 1.4-19.3 6.9-20.7-.7-25.3 8.7-31.5-6.7L300.4 320l-5.5 69.7z" class="st5"/><path d="M366.3 257.1c11-2.6 47.7-5.8 84.9 32 .6.7 1 1.5 1.4 1.4.5 0 .6-1.2.6-1.2l4.9-49.3-37.9-28.2-52-5.1" class="st6"/><path d="M366.9 206.4 274.3 154" class="st7"/><path d="M274.9 154.9 355.8 334" class="st6"/><path d="M311.2 239.9s-35.4-4.7-50.9-29.2M465.7 87.4c4.1 27.7-51.6 83.1-51.6 83.1" class="st7"/><path d="M356 333.6c8.7-78.5 16.1-163.8 16.1-163.8l93.6-82.5" class="st6"/><path d="M408.2 211.2c4.4-40 8-72.4 9-80.6M304.4 315.8l-140.2 122s27.3 15.5 46.9-3c9.1-8.5 46.7-41.2 86-78.3m-82.1 76s26.8 9 41.9-3.7c3.4-3.2 48.6-46.2 48.6-46.2" class="st6"/><path d="m295.7 392 128.2-121.6" class="st7"/><path d="M294.5 392.9c7.7-68.2 18.1-151.1 18.1-151.1" class="st6"/><path d="M256.7 427s30.1 7.1 44.2-1.9c9.6-4.8 30.3-66.1 30.3-66.1m-56.1-205.1-98.9 8.2s12.9 28.6 39.6 25.3c8.6-1.1 35.5-3.4 69.3-6.9m-61.9 7.1c4.9 7.9 17.1 23.4 37.2 20.9 5.6-.7 18.8-1.9 36.5-3.6" class="st6"/><path d="M228.4 514.8c-7-34.4 10.8-67.2 35-90.2 7.9-7.6 16.4-14.5 25.3-20.7-16.7 13.5-32 29.6-42.3 48.5-10.2 18.3-14.4 40.1-8.8 60.3 1.4 6.3-7.8 8.4-9.2 2.1z"/><path d="M201.5 535.1c-8.2-44.9 27.8-83.5 59.3-110.4 10.9-9.1 22.4-17.5 34.3-25.3-22.6 16.8-44 35.8-61.2 58.1-12.4 16.5-23 35.1-24.8 55.8-.5 6.6 0 13.3 1.6 19.6 1.4 6.3-7.7 8.4-9.2 2.2z"/></svg>