<svg xmlns="http://www.w3.org/2000/svg" xml:space="preserve" x="0px" y="0px" style="enable-background:new 0 0 5000 5000" viewBox="0 0 5000 5000"><path d="M4036.8 1652.4c0-145.1-111.7-264.6-253.7-277.1-.6-.1-1.1-.1-1.7-.2-1.3-.1-2.5-.2-3.8-.3-1-.1-2-.1-3-.2-1.1-.1-2.1-.1-3.2-.2-1.3-.1-2.6-.1-4-.2-.8 0-1.6-.1-2.4-.1-2.2-.1-4.4-.1-6.5-.1H1241.3c-2.2 0-4.4 0-6.5.1-.8 0-1.6.1-2.4.1-1.3 0-2.6.1-4 .2-1.1 0-2.1.1-3.1.2s-2 .1-3 .2c-1.3.1-2.5.2-3.8.3-.6 0-1.2.1-1.7.2-141.9 12.5-253.6 132-253.6 277.1v1695.2c0 72.9 28.1 139.2 74.1 188.9.4.5.9.9 1.3 1.4.6.6 1.2 1.3 1.8 1.9 47.1 49.5 110.6 80 179.6 85.2h.3c2.2.2 4.3.3 6.5.4h.5c2.1.1 4.3.2 6.4.2h1.3c2.1 0 4.3.1 6.4.1h2517.2c2.2 0 4.3 0 6.4-.1h1.3c2.1-.1 4.3-.1 6.4-.2h.5c2.2-.1 4.3-.3 6.5-.4h.3c68.8-5.2 132.1-35.5 179.2-84.9 48-50 77.6-117.9 77.6-192.6V1652.4z" style="fill:#66beb9"/><path d="M4036.8 1652.4c0-145.1-111.7-264.6-253.7-277.1-.6-.1-1.1-.1-1.7-.2-1.3-.1-2.5-.2-3.8-.3-1-.1-2-.1-3-.2-1.1-.1-2.1-.1-3.2-.2-1.3-.1-2.6-.1-4-.2-.8 0-1.6-.1-2.4-.1-2.2-.1-4.4-.1-6.5-.1H1241.3c-2.2 0-4.4 0-6.5.1-.8 0-1.6.1-2.4.1-1.3 0-2.6.1-4 .2-1.1 0-2.1.1-3.1.2s-2 .1-3 .2c-1.3.1-2.5.2-3.8.3-.6 0-1.2.1-1.7.2-141.9 12.5-253.6 132-253.6 277.1v1695.2c0 72.9 28.1 139.2 74.1 188.9.4.5.9.9 1.3 1.4.6.6 1.2 1.3 1.8 1.9 47.1 49.5 110.6 80 179.6 85.2h.3c2.2.2 4.3.3 6.5.4h.5c2.1.1 4.3.2 6.4.2h1.3c2.1 0 4.3.1 6.4.1h2517.2c2.2 0 4.3 0 6.4-.1h1.3c2.1-.1 4.3-.1 6.4-.2h.5c2.2-.1 4.3-.3 6.5-.4h.3c68.8-5.2 132.1-35.5 179.2-84.9 48-50 77.6-117.9 77.6-192.6V1652.4zm-1100.2 888.2 954.5-791.9v1578l-954.5-786.1zm821.9-1020.8c1.3 0 2.6 0 3.9.1h1c1 0 2 .1 3 .1.3 0 .6 0 .9.1l3.6.3h.2c39.9 3.8 75.5 25.5 97.4 58L2776 2484.6c-.1 0-.1.1-.2.1l-275.9 228.9-1368.6-1135.2c21.9-32.4 57.5-54.2 97.4-58h.2l3.6-.3c.3 0 .6 0 .9-.1 1-.1 2-.1 3-.1h1c1.3 0 2.6-.1 3.9-.1h2517.2zM1108.6 3326.7v-1578l954.6 791.9-954.6 786.1zm132.7 153.6c-1.4 0-2.7 0-4.1-.1h-1.2c-1 0-2.1-.1-3.1-.2-.4 0-.7 0-1.1-.1-2.7-.2-5.5-.5-8.2-.8-.3 0-.6-.1-.9-.1-1.1-.2-2.2-.3-3.3-.5-.3 0-.6-.1-.8-.1-2.7-.5-5.4-1-8.1-1.7-.2-.1-.5-.1-.7-.2-1.1-.3-2.3-.6-3.4-.9-.2-.1-.4-.1-.6-.2-2.7-.7-5.3-1.6-7.9-2.5-.2-.1-.4-.1-.6-.2-1.2-.4-2.5-.9-3.7-1.4-.1 0-.1 0-.2-.1-6.8-2.6-13.4-5.9-19.6-9.6l1003.6-826.5 276.1 229.1c26.9 22.4 66 22.4 93 0l276.1-229.1L3826 3461.8c-6.3 3.7-12.8 7-19.6 9.6h-.1c-1.2.5-2.5.9-3.7 1.4-.2.1-.4.1-.5.2-2.6.9-5.3 1.7-8 2.5-.2.1-.4.1-.6.2-1.1.3-2.3.6-3.4.9-.2.1-.5.1-.7.2-2.7.6-5.4 1.2-8.1 1.7-.3 0-.6.1-.9.1-1.1.2-2.2.4-3.3.5-.3 0-.6.1-.9.1-2.7.4-5.4.6-8.2.8-.4 0-.7 0-1.1.1-1 .1-2 .1-3.1.2h-1.2c-1.4 0-2.7.1-4.1.1H1241.3z" style="fill:#1a94af"/></svg>