<?xml version="1.0" encoding="utf-8"?>
<!-- Generator: Adobe Illustrator 27.5.0, SVG Export Plug-In . SVG Version: 6.00 Build 0)  -->
<svg version="1.1" id="Layer_1" xmlns="http://www.w3.org/2000/svg" xmlns:xlink="http://www.w3.org/1999/xlink" x="0px" y="0px"
	 viewBox="0 0 621 638" style="enable-background:new 0 0 621 638;" xml:space="preserve">
<style type="text/css">
	.st0{fill:none;stroke:#231F20;stroke-width:9.4305;stroke-miterlimit:10;}
	.st1{fill:none;stroke:#231F20;stroke-width:6.3656;stroke-miterlimit:10;}
	.st2{fill:#FFDD15;}
	.st3{fill:#66BEB9;}
	.st4{fill:#FAAF40;}
	.st5{fill:#1B93AE;}
	.st6{fill:none;stroke:#000000;stroke-width:10.6094;stroke-miterlimit:10;}
	.st7{fill:none;stroke:#000000;stroke-width:10.6094;stroke-linecap:round;stroke-miterlimit:10;}
</style>
<path class="st0" d="M358.1,320.2"/>
<path class="st1" d="M345,321.4"/>
<path class="st1" d="M339.9,334.9"/>
<path class="st2" d="M360.2,256.7c-0.2,2.2-0.4,4.3-0.6,6.5l0,0C359.8,261.1,360,258.9,360.2,256.7z"/>
<path class="st3" d="M307.2,239.5l-36.6-81.1l-62.3,5.5l0,0c0,0-32.8,3-31.1,3.6c0,0,23.3,23.7,38.4,18.8
	c6.2,7.4,27.5,15.3,45.5,25.2C274,233.5,307.2,239.5,307.2,239.5z"/>
<path class="st3" d="M468.9,90.3c-1.8-1.1-51.6,40.4-51.6,40.4l-0.3,31.7C417,162.4,458.9,132.1,468.9,90.3z"/>
<path class="st4" d="M409.3,143l-42,37l-0.2,1.9c0,0-0.8,9.1-2.1,23.8l8.4,4.7l0.4-1.7l33.2,3.1l6.8-61.5l0-2.3L409.3,143z"/>
<path class="st2" d="M418.7,212l-46.5-3.7l-4.1,48.1c12.6-0.2,55.6,12.1,55.6,12.1l-1.5,1.3c6.3,3.6,12.8,8.2,19.3,14.2
	c1.4,1.6,3,2.5,4.9,2.5c0.1,0,0.3,0,0.4,0c2.4-0.1,5-1.8,5.4-5.2l4.8-43.4L418.7,212z"/>
<path class="st3" d="M355.3,331.6l-36.9-81.7l-8.1,3.7l-1.4,1.9l-13.6,122c0,0,1.6,2,2.3,2.7c0.9,1,2.2,1.5,3.4,1.5
	c1.2,0,2.3-0.4,3.2-1.3L355.3,331.6z"/>
<path class="st5" d="M417.9,262.9c-25-14.5-46.2-11.3-51.6-10.2l-5.7-0.1l-0.4,4.3c-1.6,16.4-3.2,32-4.8,46.5l8.5,18.9l-0.5,0.5
	l0.2,0.2l54-51.2l5.1-6.2L417.9,262.9z"/>
<polygon class="st4" points="368,206.6 355.6,331.5 280.4,161.6 "/>
<polygon class="st5" points="334.7,357.2 301.1,426.7 254.7,428.1 235.4,435 214.7,434.3 189.4,443 157.9,436.3 300.4,320 
	294.9,389.7 "/>
<g>
	<path class="st6" d="M366.3,257.1c11-2.6,47.7-5.8,84.9,32c0.6,0.7,1,1.5,1.4,1.4c0.5,0,0.6-1.2,0.6-1.2l4.9-49.3l-37.9-28.2
		l-52-5.1"/>
	<line class="st7" x1="366.9" y1="206.4" x2="274.3" y2="154"/>
	<line class="st6" x1="274.9" y1="154.9" x2="355.8" y2="334"/>
	<path class="st7" d="M311.2,239.9c0,0-35.4-4.7-50.9-29.2"/>
	<path class="st7" d="M465.7,87.4c4.1,27.7-51.6,83.1-51.6,83.1"/>
	<path class="st6" d="M356,333.6c8.7-78.5,16.1-163.8,16.1-163.8l93.6-82.5"/>
	<path class="st6" d="M408.2,211.2c4.4-40,8-72.4,9-80.6"/>
	<path class="st6" d="M304.4,315.8l-140.2,122c0,0,27.3,15.5,46.9-3c9.1-8.5,46.7-41.2,86-78.3"/>
	<path class="st6" d="M215,432.5c0,0,26.8,9,41.9-3.7c3.4-3.2,48.6-46.2,48.6-46.2"/>
	<line class="st7" x1="295.7" y1="392" x2="423.9" y2="270.4"/>
	<path class="st6" d="M294.5,392.9c7.7-68.2,18.1-151.1,18.1-151.1"/>
	<path class="st6" d="M256.7,427c0,0,30.1,7.1,44.2-1.9c9.6-4.8,30.3-66.1,30.3-66.1"/>
	<path class="st6" d="M275.1,153.9l-98.9,8.2c0,0,12.9,28.6,39.6,25.3c8.6-1.1,35.5-3.4,69.3-6.9"/>
	<path class="st6" d="M223.2,187.6c4.9,7.9,17.1,23.4,37.2,20.9c5.6-0.7,18.8-1.9,36.5-3.6"/>
</g>
<g>
	<g>
		<path d="M228.4,514.8c-7-34.4,10.8-67.2,35-90.2c7.9-7.6,16.4-14.5,25.3-20.7c-16.7,13.5-32,29.6-42.3,48.5
			c-10.2,18.3-14.4,40.1-8.8,60.3C239,519,229.8,521.1,228.4,514.8L228.4,514.8z"/>
	</g>
	<g>
		<g>
			<path d="M201.5,535.1c-8.2-44.9,27.8-83.5,59.3-110.4c10.9-9.1,22.4-17.5,34.3-25.3c-22.6,16.8-44,35.8-61.2,58.1
				c-12.4,16.5-23,35.1-24.8,55.8c-0.5,6.6,0,13.3,1.6,19.6C212.1,539.2,203,541.3,201.5,535.1L201.5,535.1z"/>
		</g>
	</g>
</g>
</svg>
