<?xml version="1.0" encoding="utf-8"?>
<!-- Generator: Adobe Illustrator 27.5.0, SVG Export Plug-In . SVG Version: 6.00 Build 0)  -->
<svg version="1.1" id="Layer_1" xmlns="http://www.w3.org/2000/svg" xmlns:xlink="http://www.w3.org/1999/xlink" x="0px" y="0px"
	 viewBox="0 0 5000 5000" style="enable-background:new 0 0 5000 5000;" xml:space="preserve">
<style type="text/css">
	.st0{fill:#66BEB9;}
	.st1{fill:#1A94AF;}
</style>
<path class="st0" d="M4036.8,1652.4c0-145.1-111.7-264.6-253.7-277.1c-0.6-0.1-1.1-0.1-1.7-0.2c-1.3-0.1-2.5-0.2-3.8-0.3
	c-1-0.1-2-0.1-3-0.2c-1.1-0.1-2.1-0.1-3.2-0.2c-1.3-0.1-2.6-0.1-4-0.2c-0.8,0-1.6-0.1-2.4-0.1c-2.2-0.1-4.4-0.1-6.5-0.1H1241.3
	c-2.2,0-4.4,0-6.5,0.1c-0.8,0-1.6,0.1-2.4,0.1c-1.3,0-2.6,0.1-4,0.2c-1.1,0-2.1,0.1-3.1,0.2c-1,0.1-2,0.1-3,0.2
	c-1.3,0.1-2.5,0.2-3.8,0.3c-0.6,0-1.2,0.1-1.7,0.2c-141.9,12.5-253.6,132-253.6,277.1v1695.2c0,72.9,28.1,139.2,74.1,188.9
	c0.4,0.5,0.9,0.9,1.3,1.4c0.6,0.6,1.2,1.3,1.8,1.9c47.1,49.5,110.6,80,179.6,85.2c0.1,0,0.2,0,0.3,0c2.2,0.2,4.3,0.3,6.5,0.4
	c0.2,0,0.4,0,0.5,0c2.1,0.1,4.3,0.2,6.4,0.2c0.4,0,0.9,0,1.3,0c2.1,0,4.3,0.1,6.4,0.1h2517.2c2.2,0,4.3,0,6.4-0.1c0.4,0,0.9,0,1.3,0
	c2.1-0.1,4.3-0.1,6.4-0.2c0.2,0,0.4,0,0.5,0c2.2-0.1,4.3-0.3,6.5-0.4c0.1,0,0.2,0,0.3,0c68.8-5.2,132.1-35.5,179.2-84.9
	c48-50,77.6-117.9,77.6-192.6V1652.4z"/>
<path class="st1" d="M4036.8,1652.4c0-145.1-111.7-264.6-253.7-277.1c-0.6-0.1-1.1-0.1-1.7-0.2c-1.3-0.1-2.5-0.2-3.8-0.3
	c-1-0.1-2-0.1-3-0.2c-1.1-0.1-2.1-0.1-3.2-0.2c-1.3-0.1-2.6-0.1-4-0.2c-0.8,0-1.6-0.1-2.4-0.1c-2.2-0.1-4.4-0.1-6.5-0.1H1241.3
	c-2.2,0-4.4,0-6.5,0.1c-0.8,0-1.6,0.1-2.4,0.1c-1.3,0-2.6,0.1-4,0.2c-1.1,0-2.1,0.1-3.1,0.2c-1,0.1-2,0.1-3,0.2
	c-1.3,0.1-2.5,0.2-3.8,0.3c-0.6,0-1.2,0.1-1.7,0.2c-141.9,12.5-253.6,132-253.6,277.1v1695.2c0,72.9,28.1,139.2,74.1,188.9
	c0.4,0.5,0.9,0.9,1.3,1.4c0.6,0.6,1.2,1.3,1.8,1.9c47.1,49.5,110.6,80,179.6,85.2c0.1,0,0.2,0,0.3,0c2.2,0.2,4.3,0.3,6.5,0.4
	c0.2,0,0.4,0,0.5,0c2.1,0.1,4.3,0.2,6.4,0.2c0.4,0,0.9,0,1.3,0c2.1,0,4.3,0.1,6.4,0.1h2517.2c2.2,0,4.3,0,6.4-0.1c0.4,0,0.9,0,1.3,0
	c2.1-0.1,4.3-0.1,6.4-0.2c0.2,0,0.4,0,0.5,0c2.2-0.1,4.3-0.3,6.5-0.4c0.1,0,0.2,0,0.3,0c68.8-5.2,132.1-35.5,179.2-84.9
	c48-50,77.6-117.9,77.6-192.6V1652.4z M2936.6,2540.6l954.5-791.9v1578L2936.6,2540.6z M3758.5,1519.8c1.3,0,2.6,0,3.9,0.1
	c0.3,0,0.7,0,1,0c1,0,2,0.1,3,0.1c0.3,0,0.6,0,0.9,0.1c1.2,0.1,2.4,0.2,3.6,0.3c0.1,0,0.1,0,0.2,0c39.9,3.8,75.5,25.5,97.4,58
	L2776,2484.6c-0.1,0-0.1,0.1-0.2,0.1l-275.9,228.9L1131.3,1578.4c21.9-32.4,57.5-54.2,97.4-58c0.1,0,0.1,0,0.2,0
	c1.2-0.1,2.4-0.2,3.6-0.3c0.3,0,0.6,0,0.9-0.1c1-0.1,2-0.1,3-0.1c0.3,0,0.7,0,1,0c1.3,0,2.6-0.1,3.9-0.1H3758.5z M1108.6,3326.7
	v-1578l954.6,791.9L1108.6,3326.7z M1241.3,3480.3c-1.4,0-2.7,0-4.1-0.1c-0.4,0-0.8,0-1.2,0c-1,0-2.1-0.1-3.1-0.2
	c-0.4,0-0.7,0-1.1-0.1c-2.7-0.2-5.5-0.5-8.2-0.8c-0.3,0-0.6-0.1-0.9-0.1c-1.1-0.2-2.2-0.3-3.3-0.5c-0.3,0-0.6-0.1-0.8-0.1
	c-2.7-0.5-5.4-1-8.1-1.7c-0.2-0.1-0.5-0.1-0.7-0.2c-1.1-0.3-2.3-0.6-3.4-0.9c-0.2-0.1-0.4-0.1-0.6-0.2c-2.7-0.7-5.3-1.6-7.9-2.5
	c-0.2-0.1-0.4-0.1-0.6-0.2c-1.2-0.4-2.5-0.9-3.7-1.4c-0.1,0-0.1,0-0.2-0.1c-6.8-2.6-13.4-5.9-19.6-9.6l1003.6-826.5l276.1,229.1
	c26.9,22.4,66,22.4,93,0l276.1-229.1L3826,3461.8c-6.3,3.7-12.8,7-19.6,9.6c0,0-0.1,0-0.1,0c-1.2,0.5-2.5,0.9-3.7,1.4
	c-0.2,0.1-0.4,0.1-0.5,0.2c-2.6,0.9-5.3,1.7-8,2.5c-0.2,0.1-0.4,0.1-0.6,0.2c-1.1,0.3-2.3,0.6-3.4,0.9c-0.2,0.1-0.5,0.1-0.7,0.2
	c-2.7,0.6-5.4,1.2-8.1,1.7c-0.3,0-0.6,0.1-0.9,0.1c-1.1,0.2-2.2,0.4-3.3,0.5c-0.3,0-0.6,0.1-0.9,0.1c-2.7,0.4-5.4,0.6-8.2,0.8
	c-0.4,0-0.7,0-1.1,0.1c-1,0.1-2,0.1-3.1,0.2c-0.4,0-0.8,0-1.2,0c-1.4,0-2.7,0.1-4.1,0.1H1241.3z"/>
</svg>
